<?xml version="1.0" standalone="no"?>
<!DOCTYPE svg PUBLIC "-//W3C//DTD SVG 20010904//EN"
 "http://www.w3.org/TR/2001/REC-SVG-20010904/DTD/svg10.dtd">
<svg version="1.0" xmlns="http://www.w3.org/2000/svg"
 width="232.000000pt" height="72.000000pt" viewBox="0 0 232.000000 72.000000"
 preserveAspectRatio="xMidYMid meet">
<metadata>
Created by potrace 1.16, written by Peter Selinger 2001-2019
</metadata>
<g transform="translate(0.000000,72.000000) scale(0.100000,-0.100000)"
fill="#000000" stroke="none">
<path d="M54 698 c-40 -19 -44 -46 -44 -338 0 -296 3 -319 47 -339 34 -16
2172 -16 2206 0 44 20 47 43 47 339 0 296 -3 319 -47 339 -33 15 -2178 14
-2209 -1z m328 -214 c201 -120 206 -127 126 -172 l-48 -27 -36 36 -36 37 -101
-109 c-56 -59 -105 -105 -109 -103 -9 6 -11 404 -2 428 3 9 11 16 16 16 6 0
91 -48 190 -106z m494 -88 c15 -12 17 -17 7 -27 -10 -10 -16 -10 -25 -1 -39
39 -118 -10 -118 -73 0 -71 83 -112 130 -65 29 29 25 40 -15 40 -28 0 -35 4
-35 20 0 17 7 20 50 20 l50 0 0 -36 c0 -54 -44 -94 -103 -94 -85 0 -138 87
-102 164 10 20 29 43 44 51 34 18 92 19 117 1z m917 -14 c22 -19 22 -70 0 -94
-10 -11 -30 -18 -55 -18 l-38 0 0 -45 c0 -33 -4 -45 -15 -45 -12 0 -15 19 -15
113 l0 112 52 -3 c29 -2 61 -11 71 -20z m-738 -77 c49 -48 19 -125 -49 -125
-51 0 -84 48 -65 98 21 56 73 69 114 27z m160 0 c28 -27 31 -51 13 -90 -31
-69 -153 -25 -134 49 16 64 78 85 121 41z m161 15 c21 0 19 -158 -2 -188 -19
-28 -74 -30 -98 -3 -20 22 -4 40 19 21 21 -17 60 -8 63 15 2 17 -3 20 -34 20
-70 0 -95 74 -43 126 16 16 29 20 51 15 17 -3 37 -6 44 -6z"/>
</g>
</svg>
