<?xml version="1.0" standalone="no"?>
<!DOCTYPE svg PUBLIC "-//W3C//DTD SVG 20010904//EN"
 "http://www.w3.org/TR/2001/REC-SVG-20010904/DTD/svg10.dtd">
<svg version="1.0" xmlns="http://www.w3.org/2000/svg"
 width="232.000000pt" height="72.000000pt" viewBox="0 0 232.000000 72.000000"
 preserveAspectRatio="xMidYMid meet">
<metadata>
Created by potrace 1.16, written by Peter Selinger 2001-2019
</metadata>
<g transform="translate(0.000000,72.000000) scale(0.100000,-0.100000)"
fill="#000000" stroke="none">
<path d="M21 697 c-22 -24 -22 -26 -21 -348 1 -199 6 -329 12 -336 7 -9 268
-12 1137 -13 l1127 0 23 23 c22 24 22 26 21 348 -1 199 -6 329 -12 336 -7 9
-268 12 -1137 13 l-1127 0 -23 -23z m2240 -16 c18 -22 19 -43 19 -308 l0 -284
-25 -24 -24 -25 -1084 0 c-1053 0 -1085 1 -1108 19 l-24 19 -3 278 c-3 293 0
322 41 342 15 7 359 10 1105 9 l1084 -2 19 -24z"/>
<path d="M272 475 c-42 -18 -67 -73 -58 -128 9 -51 39 -110 71 -135 22 -17 30
-19 60 -9 24 7 45 7 69 0 46 -14 73 2 107 64 10 19 8 26 -15 53 -31 38 -33 68
-6 103 26 33 26 34 -11 53 -27 13 -38 14 -75 4 -32 -9 -51 -10 -75 -1 -18 6
-32 11 -33 11 -1 -1 -16 -7 -34 -15z"/>
<path d="M769 383 c-25 -64 -69 -185 -69 -189 0 -2 7 -4 16 -4 8 0 20 14 25
30 10 27 15 30 54 30 39 0 44 -3 54 -30 5 -17 17 -30 25 -30 21 0 21 -2 -22
115 -41 108 -63 130 -83 78z"/>
<path d="M1343 386 c-24 -21 -26 -27 -18 -52 8 -20 22 -31 57 -43 61 -21 76
-35 58 -56 -16 -19 -64 -20 -80 0 -17 21 -42 19 -38 -2 8 -43 117 -55 145 -17
32 44 7 84 -65 104 -36 9 -43 15 -40 33 4 28 64 38 74 13 7 -17 44 -22 44 -7
0 18 -53 51 -81 51 -15 0 -40 -11 -56 -24z"/>
<path d="M910 245 c0 -87 3 -105 15 -105 11 0 15 11 15 36 0 31 3 35 18 29 41
-17 52 -16 76 9 64 63 3 167 -75 126 -13 -7 -19 -7 -19 0 0 5 -7 10 -15 10
-12 0 -15 -18 -15 -105z"/>
<path d="M1090 245 c0 -87 3 -105 15 -105 11 0 15 11 15 35 0 32 2 35 19 25
50 -26 91 7 91 74 0 35 -5 48 -22 60 -27 19 -59 21 -76 4 -9 -9 -12 -9 -12 0
0 7 -7 12 -15 12 -12 0 -15 -18 -15 -105z"/>
<path d="M1621 324 c-28 -36 -27 -79 4 -109 31 -32 69 -32 100 0 49 48 17 135
-50 135 -24 0 -39 -7 -54 -26z"/>
<path d="M1893 335 c-45 -32 -30 -126 22 -139 32 -8 81 9 89 30 7 17 -17 18
-44 2 -15 -9 -25 -10 -37 -2 -36 23 -26 34 31 34 48 0 56 3 56 19 0 10 -9 30
-21 45 -23 30 -63 34 -96 11z"/>
</g>
</svg>
